<?xml version="1.0" standalone="no"?>
<!DOCTYPE svg PUBLIC "-//W3C//DTD SVG 20010904//EN"
 "http://www.w3.org/TR/2001/REC-SVG-20010904/DTD/svg10.dtd">
<svg version="1.0" xmlns="http://www.w3.org/2000/svg"
 width="500.000000pt" height="500.000000pt" viewBox="0 0 500.000000 500.000000"
 preserveAspectRatio="xMidYMid meet">
<metadata>
Created by potrace 1.14, written by Peter Selinger 2001-2017
</metadata>
<g transform="translate(0.000000,500.000000) scale(0.100000,-0.100000)"
fill="#000000" stroke="none">
<path d="M2445 4940 c-74 -9 -185 -39 -185 -52 0 -5 -4 -7 -9 -4 -4 3 -21 -5
-37 -19 -15 -13 -30 -22 -33 -20 -7 7 -101 -97 -101 -111 0 -8 -4 -14 -10 -14
-5 0 -10 -7 -10 -15 0 -8 -4 -15 -8 -15 -7 0 -33 -59 -38 -87 -1 -6 -7 -27
-12 -45 -6 -18 -13 -61 -16 -95 -3 -35 -6 -66 -7 -70 -1 -5 -1 -10 0 -13 1 -3
4 -32 6 -65 5 -85 18 -173 31 -217 8 -25 16 -62 16 -75 1 -7 5 -13 10 -13 5 0
6 -5 3 -10 -4 -6 -1 -18 6 -26 6 -8 9 -17 6 -21 -4 -3 -3 -11 1 -17 5 -6 19
-40 31 -76 13 -36 26 -72 31 -81 4 -9 26 -63 49 -120 22 -57 46 -117 52 -134
7 -16 13 -32 13 -35 1 -3 5 -11 9 -17 5 -7 5 -17 2 -23 -3 -5 -2 -10 4 -10 7
0 21 -36 26 -70 0 -3 3 -9 6 -15 6 -9 18 -52 20 -72 1 -5 5 -18 10 -31 5 -12
11 -33 13 -45 3 -12 8 -33 11 -47 4 -14 8 -34 10 -45 2 -11 11 -54 20 -95 8
-41 13 -80 11 -87 -3 -7 -2 -13 2 -13 4 0 8 -24 10 -53 1 -28 4 -76 7 -104 4
-57 3 -59 -17 -40 -7 6 -33 26 -58 42 -25 17 -49 33 -55 38 -5 4 -28 21 -50
37 -126 94 -296 262 -455 450 -51 61 -66 80 -85 106 -11 15 -30 38 -42 50 -13
13 -23 28 -23 33 0 6 -9 16 -20 23 -11 7 -20 18 -20 25 0 7 -3 13 -7 13 -5 0
-30 28 -58 62 -71 89 -161 176 -235 228 -19 13 -38 29 -42 35 -4 5 -8 6 -8 1
0 -5 -12 1 -26 15 -14 13 -27 22 -29 19 -3 -3 -13 2 -23 11 -29 25 -137 66
-202 77 -46 7 -155 6 -205 -2 -40 -7 -151 -52 -171 -71 -7 -5 -24 -19 -40 -30
-81 -59 -143 -161 -179 -300 -13 -48 -17 -215 -6 -215 3 0 7 -14 8 -32 1 -17
7 -36 13 -42 5 -5 10 -16 10 -23 0 -19 68 -122 105 -157 46 -44 84 -76 91 -76
3 0 24 -13 47 -29 63 -43 221 -114 282 -127 11 -2 43 -10 70 -18 28 -8 68 -18
90 -22 22 -4 47 -9 55 -10 8 -2 50 -8 92 -14 79 -11 109 -15 163 -24 17 -3 48
-7 70 -10 39 -5 95 -14 145 -22 14 -2 40 -8 59 -13 18 -6 36 -10 40 -9 3 0 8
-1 11 -2 3 -1 12 -3 20 -5 8 -1 42 -10 75 -19 33 -10 67 -19 75 -21 8 -2 16
-4 18 -5 1 -2 5 -3 10 -5 4 -1 14 -4 22 -8 14 -5 88 -29 100 -32 12 -3 49 -19
109 -46 35 -16 66 -27 69 -24 3 3 15 -3 26 -14 12 -10 29 -21 39 -23 33 -6 23
-19 -38 -46 -33 -14 -63 -31 -67 -37 -4 -5 -8 -7 -8 -2 0 4 -11 0 -25 -9 -14
-9 -25 -13 -25 -9 0 4 -7 2 -15 -5 -8 -7 -15 -10 -15 -6 0 4 -10 0 -22 -8 -18
-11 -192 -69 -243 -81 -5 -1 -17 -5 -25 -8 -8 -3 -49 -13 -90 -21 -41 -9 -86
-19 -100 -22 -37 -8 -61 -12 -100 -18 -19 -3 -46 -8 -60 -10 -14 -3 -43 -7
-65 -10 -51 -7 -113 -16 -145 -22 -14 -3 -41 -7 -60 -9 -19 -3 -46 -7 -60 -10
-14 -3 -34 -8 -45 -9 -56 -10 -161 -39 -171 -47 -7 -5 -16 -9 -20 -7 -5 1 -24
-3 -42 -9 -18 -7 -36 -13 -40 -15 -50 -16 -252 -137 -252 -150 0 -5 -5 -8 -10
-8 -11 0 -77 -71 -97 -104 -18 -31 -57 -109 -59 -121 -1 -5 -7 -30 -13 -55
-14 -58 -14 -156 -1 -181 8 -14 7 -19 -1 -19 -8 0 -8 -4 -2 -12 5 -7 15 -33
22 -58 18 -65 73 -157 125 -213 26 -27 46 -45 46 -40 0 4 4 3 8 -3 11 -18 133
-82 172 -90 46 -10 216 -10 259 -1 51 11 127 46 211 96 41 25 77 48 80 51 3 3
21 17 40 30 43 29 206 193 246 246 16 21 40 49 53 61 13 13 20 23 16 23 -4 0
3 10 16 23 13 13 32 34 41 48 22 32 68 88 91 111 9 10 14 18 11 18 -3 0 1 6 8
14 7 7 47 50 88 96 62 68 168 176 224 225 6 6 45 38 86 70 41 33 77 62 80 65
3 3 32 23 65 45 33 22 63 45 68 50 8 11 2 -100 -10 -175 -3 -25 -6 -48 -5 -53
1 -4 -2 -26 -7 -50 -5 -23 -13 -62 -16 -87 -4 -24 -11 -52 -16 -62 -5 -10 -8
-18 -6 -18 3 0 -7 -39 -20 -88 -14 -48 -26 -94 -27 -102 -2 -8 -8 -28 -15 -43
-6 -16 -11 -35 -11 -43 0 -8 -5 -14 -12 -14 -6 0 -9 -3 -6 -6 3 -3 -3 -29 -14
-57 -11 -29 -24 -65 -29 -82 -6 -16 -14 -37 -19 -46 -4 -8 -20 -47 -35 -85
-14 -38 -37 -95 -50 -126 -14 -32 -22 -58 -19 -58 2 0 -2 -13 -11 -30 -8 -16
-16 -33 -16 -37 -1 -5 -3 -12 -5 -18 -13 -39 -44 -180 -49 -225 -18 -148 -18
-143 -11 -230 12 -154 59 -264 154 -358 34 -34 69 -62 77 -62 8 0 15 -3 15 -7
0 -9 86 -46 110 -49 8 0 33 -6 55 -12 47 -12 196 -9 243 6 18 6 33 11 35 11 9
0 50 17 95 39 54 27 152 111 152 131 0 6 5 11 11 11 5 0 8 4 5 9 -3 5 1 14 9
21 55 46 98 321 71 457 -3 15 -8 48 -11 73 -6 48 -32 152 -45 185 -5 11 -19
52 -31 90 -13 39 -26 72 -30 75 -3 3 -9 17 -12 31 -4 14 -13 41 -21 60 -8 19
-14 36 -14 39 1 3 -8 23 -19 45 -19 37 -101 260 -108 295 -2 8 -4 15 -5 15 -1
0 -3 7 -5 15 -2 8 -18 67 -34 130 -16 63 -32 131 -35 150 -3 19 -8 46 -11 60
-2 13 -6 39 -7 57 -1 18 -5 33 -8 33 -3 0 -6 41 -8 90 -2 50 1 90 6 90 5 0 21
-11 36 -25 14 -13 26 -22 26 -19 0 6 120 -86 190 -146 71 -61 234 -224 281
-281 21 -24 50 -58 65 -76 16 -18 39 -45 51 -60 95 -124 133 -171 151 -189 7
-8 11 -14 9 -14 -6 0 82 -98 143 -160 93 -93 188 -170 210 -170 5 0 10 -4 10
-10 0 -5 5 -10 11 -10 6 0 29 -13 52 -28 43 -29 129 -66 182 -78 42 -10 213
-10 255 -1 65 15 161 69 221 125 32 31 59 62 59 69 0 7 4 13 8 13 11 0 66 121
79 170 19 76 22 242 4 248 -5 2 -8 9 -5 17 3 7 -11 47 -31 89 -60 123 -162
212 -335 293 -81 38 -186 76 -240 86 -14 3 -32 8 -40 11 -8 3 -28 7 -45 10
-16 2 -55 9 -85 15 -30 6 -75 13 -100 17 -25 3 -54 7 -65 9 -11 1 -33 5 -50 8
-36 7 -109 18 -150 23 -16 2 -41 6 -55 9 -14 4 -35 8 -48 10 -23 3 -115 24
-142 32 -8 2 -15 4 -15 4 0 0 -43 13 -95 28 -134 41 -243 82 -330 125 -41 20
-81 36 -87 36 -7 0 -13 5 -13 10 0 12 149 84 168 81 6 -1 12 3 12 9 0 5 4 10
9 10 5 0 22 5 38 12 15 6 30 12 33 13 3 1 48 15 100 32 52 17 112 34 133 38
20 4 40 11 43 16 3 5 10 7 15 3 5 -3 16 0 24 6 8 6 19 9 25 5 6 -4 18 -1 27 7
9 7 17 11 17 9 1 -3 71 5 136 16 92 16 126 21 185 28 28 3 61 7 75 10 46 10
65 13 115 19 28 4 68 12 90 18 55 14 55 14 103 23 23 4 42 12 42 17 0 5 4 7 9
3 5 -3 35 6 67 20 31 14 63 25 70 25 8 0 14 4 14 8 0 4 16 14 35 21 59 21 181
109 229 164 107 123 147 259 123 427 -17 126 -101 264 -208 342 -55 41 -160
84 -209 87 -35 2 -53 5 -66 14 -6 3 -14 4 -18 0 -3 -4 -23 -8 -44 -9 -96 -6
-272 -67 -272 -95 0 -6 -6 -9 -12 -7 -7 3 -18 0 -24 -6 -6 -6 -22 -18 -34 -26
-117 -77 -295 -254 -410 -408 -136 -180 -272 -337 -374 -432 -27 -25 -64 -58
-82 -75 -65 -60 -240 -195 -252 -195 -5 0 -17 -9 -27 -20 -17 -19 -41 -18 -30
1 4 5 8 42 10 81 2 40 6 84 9 98 5 23 10 57 21 130 4 24 22 110 31 140 2 8 10
39 16 68 7 28 16 52 21 52 4 0 6 4 2 9 -3 5 -1 20 4 33 20 50 24 63 22 76 -1
6 3 12 9 12 6 0 10 6 8 13 -2 11 38 116 79 206 8 18 16 39 17 45 1 6 10 29 20
51 10 22 19 45 20 50 5 17 17 49 25 65 4 8 18 51 31 95 12 44 26 91 31 105 8
23 39 195 37 209 0 3 1 8 2 11 1 3 3 41 4 85 2 92 -16 212 -41 270 -35 81
-118 195 -141 195 -6 0 -12 7 -16 15 -3 8 -11 15 -17 15 -7 0 -20 7 -30 16 -9
8 -23 17 -31 18 -7 2 -24 8 -38 13 -14 6 -28 9 -32 6 -5 -2 -8 0 -8 5 0 5 -6
9 -12 9 -20 1 -142 15 -148 17 -3 1 -32 -1 -65 -4z"/>
</g>
</svg>
